<!-- This Source Code Form is subject to the terms of the Mozilla Public
   - License, v. 2.0. If a copy of the MPL was not distributed with this
   - file, You can obtain one at http://mozilla.org/MPL/2.0/. -->
<svg xmlns="http://www.w3.org/2000/svg" width="16" height="16" viewBox="0 0 16 16">
  <style>
    :root {
      color-scheme: light dark;
    }
    g.prefer-color-scheme.default:target {
      fill: rgb(21, 20, 26); /* https://searchfox.org/mozilla-central/rev/d6576544301cacc0e393fbc919c53e4e6b0d46ec/toolkit/themes/shared/in-content/common-shared.css#16 */
    }
    g.prefer-color-scheme.toolbar:target {
      fill: rgb(91, 91, 102); /* https://searchfox.org/mozilla-central/rev/d6576544301cacc0e393fbc919c53e4e6b0d46ec/browser/themes/shared/browser-custom-colors.css#74 */
    }
    @media (prefers-color-scheme: dark) {
      g.prefer-color-scheme.default:target,
      g.prefer-color-scheme.toolbar:target {
        fill: rgb(251, 251, 254); /* https://searchfox.org/mozilla-central/rev/d6576544301cacc0e393fbc919c53e4e6b0d46ec/browser/themes/shared/browser-custom-colors.css#74 */
      }
    }
  </style>
<symbol id="icon">
  <path d="M15.845 6.064A1.1 1.1 0 0 0 15 5.331L10.911 4.6 8.985.735a1.1 1.1 0 0 0-1.969 0L5.089 4.6l-4.081.729a1.1 1.1 0 0 0-.615 1.834L3.32 10.31l-.609 4.36a1.1 1.1 0 0 0 1.6 1.127L8 13.873l3.69 1.927a1.1 1.1 0 0 0 1.6-1.127l-.61-4.363 2.926-3.146a1.1 1.1 0 0 0 .239-1.1z"></path>
</symbol>
<g id="toolbar-theme" class="theme toolbar">
	<use href="#icon"/>
</g>
<g id="default-theme" class="theme default">
	<use href="#icon"/>
</g>
<g id="toolbar" class="prefer-color-scheme toolbar">
	<use href="#icon"/>
</g>
<g id="default" class="prefer-color-scheme default">
	<use href="#icon"/>
</g>
</svg>