<!-- This Source Code Form is subject to the terms of the Mozilla Public
   - License, v. 2.0. If a copy of the MPL was not distributed with this
   - file, You can obtain one at http://mozilla.org/MPL/2.0/. -->
<svg xmlns="http://www.w3.org/2000/svg" width="16" height="16" viewBox="0 0 16 16">
  <style>
    :root {
      color-scheme: light dark;
    }
    path {
      fill: rgb(91, 91, 102); /* https://searchfox.org/mozilla-central/rev/d6576544301cacc0e393fbc919c53e4e6b0d46ec/browser/themes/shared/browser-custom-colors.css#74 */
    }
    @media (prefers-color-scheme: dark) {
      path {
        fill: rgb(251, 251, 254); /* https://searchfox.org/mozilla-central/rev/d6576544301cacc0e393fbc919c53e4e6b0d46ec/browser/themes/shared/browser-custom-colors.css#74 */
      }
    }
  </style>
  <path d="M6.586 8l-2.293 2.293a1 1 0 0 0 1.414 1.414L8 9.414l2.293 2.293a1 1 0 0 0 1.414-1.414L9.414 8l2.293-2.293a1 1 0 1 0-1.414-1.414L8 6.586 5.707 4.293a1 1 0 0 0-1.414 1.414L6.586 8zM8 0a8 8 0 1 1 0 16A8 8 0 0 1 8 0z"></path>
</svg>